/* XPM */
static char*xs[]={
"32 32 5 1",
"b c #000000",
"# c #0000ff",
"a c #969696",
". c #ffffff",
"c c #ff0000",
"................................",
"................................",
"..############################..",
"..#..#.....#.....#.....#.....#a.",
"..#..........................#a.",
"..#.............b............#a.",
"..##...........b.b..........##a.",
"..#............b.b...........#a.",
"..#............b..b..........#a.",
"..#...........b...b..........#a.",
"..#...........b...b..........#a.",
"..#..........b....b..........#a.",
"..##........b.....b.bb......##a.",
"..#....b...b.......b..b.b....#a.",
"..#bbbb.bbb............b.bbbb#a.",
"..#..........................#a.",
"..#..#.....#.....#.....#.....#a.",
"..############################a.",
"...aaaaaaaaaaaaaaaaaaaaaaaaaaaa.",
".....cc.........cc...ccccc......",
"......cc.......cc...cc...cc.....",
".......cc.....cc....cc....c.....",
"........cc...cc.....cc..........",
".........cc.cc.......cc.........",
"..........ccc.........ccc.......",
"..........ccc...........cc......",
".........cc.cc...........cc.....",
"........cc...cc.....c....cc.....",
".......cc.....cc....c....cc.....",
"......cc.......cc...cc...cc.....",
".....cc.........cc...ccccc......",
"................................"};
